{
  "accessors": [
    {
      "bufferView": 2,
      "componentType": 5126,
      "count": 84,
      "max": [
        0.9618938565254211,
        1.1106994152069092,
        1.0
      ],
      "min": [
        -0.9618938565254211,
        -1.1106994152069092,
        -1.0
      ],
      "type": "VEC3"
    },
    {
      "bufferView": 2,
      "byteOffset": 1008,
      "componentType": 5126,
      "count": 84,
      "max": [
        1.0,
        0.8660253882408142,
        1.0
      ],
      "min": [
        -1.0,
        -0.8660253882408142,
        -1.0
      ],
      "type": "VEC3"
    },
    {
      "bufferView": 1,
      "componentType": 5126,
      "count": 84,
      "max": [
        0.7636405825614929,
        0.9768287539482117
      ],
      "min": [
        0.24029430747032166,
        0.02443978190422058
      ],
      "type": "VEC2"
    },
    {
      "bufferView": 0,
      "componentType": 5125,
      "count": 132,
      "type": "SCALAR"
    },
    {
      "bufferView": 2,
      "byteOffset": 2016,
      "componentType": 5126,
      "count": 620,
      "max": [
        0.6035478711128235,
        0.6629279851913452,
        1.0055361986160278
      ],
      "min": [
        -0.5956428050994873,
        -0.634003221988678,
        -0.8497600555419922
      ],
      "type": "VEC3"
    },
    {
      "bufferView": 2,
      "byteOffset": 9456,
      "componentType": 5126,
      "count": 620,
      "max": [
        0.9964606165885925,
        0.9577105641365051,
        1.0
      ],
      "min": [
        -0.999721884727478,
        -0.9564745426177979,
        -0.9999632835388184
      ],
      "type": "VEC3"
    },
    {
      "bufferView": 1,
      "byteOffset": 672,
      "componentType": 5126,
      "count": 620,
      "max": [
        0.9051008820533752,
        0.9463170766830444
      ],
      "min": [
        0.23624534904956818,
        -0.0066642165184021
      ],
      "type": "VEC2"
    },
    {
      "bufferView": 0,
      "byteOffset": 528,
      "componentType": 5125,
      "count": 948,
      "type": "SCALAR"
    },
    {
      "bufferView": 2,
      "byteOffset": 16896,
      "componentType": 5126,
      "count": 620,
      "max": [
        0.6035478711128235,
        0.6629279851913452,
        1.0055361986160278
      ],
      "min": [
        -0.5956428050994873,
        -0.634003221988678,
        -0.8497600555419922
      ],
      "type": "VEC3"
    },
    {
      "bufferView": 2,
      "byteOffset": 24336,
      "componentType": 5126,
      "count": 620,
      "max": [
        0.9964606165885925,
        0.9577105641365051,
        1.0
      ],
      "min": [
        -0.999721884727478,
        -0.9564745426177979,
        -0.9999632835388184
      ],
      "type": "VEC3"
    },
    {
      "bufferView": 1,
      "byteOffset": 5632,
      "componentType": 5126,
      "count": 620,
      "max": [
        0.9051008820533752,
        0.9463170766830444
      ],
      "min": [
        0.23624534904956818,
        -0.0066642165184021
      ],
      "type": "VEC2"
    },
    {
      "bufferView": 0,
      "byteOffset": 4320,
      "componentType": 5125,
      "count": 948,
      "type": "SCALAR"
    },
    {
      "bufferView": 2,
      "byteOffset": 31776,
      "componentType": 5126,
      "count": 620,
      "max": [
        0.6035478711128235,
        0.6346079707145691,
        1.0000008344650269
      ],
      "min": [
        -0.6035479307174683,
        -0.6346079111099243,
        -0.8461494445800781
      ],
      "type": "VEC3"
    },
    {
      "bufferView": 2,
      "byteOffset": 39216,
      "componentType": 5126,
      "count": 620,
      "max": [
        0.9940865635871887,
        0.9479401707649231,
        1.0
      ],
      "min": [
        -0.9972347617149353,
        -0.9507026672363281,
        -1.0
      ],
      "type": "VEC3"
    },
    {
      "bufferView": 1,
      "byteOffset": 10592,
      "componentType": 5126,
      "count": 620,
      "max": [
        0.9051008820533752,
        0.9463170766830444
      ],
      "min": [
        0.23624534904956818,
        -0.0066642165184021
      ],
      "type": "VEC2"
    },
    {
      "bufferView": 0,
      "byteOffset": 8112,
      "componentType": 5125,
      "count": 948,
      "type": "SCALAR"
    },
    {
      "bufferView": 2,
      "byteOffset": 46656,
      "componentType": 5126,
      "count": 620,
      "max": [
        0.6035478711128235,
        0.6629279851913452,
        1.0055361986160278
      ],
      "min": [
        -0.5956428050994873,
        -0.634003221988678,
        -0.8497600555419922
      ],
      "type": "VEC3"
    },
    {
      "bufferView": 2,
      "byteOffset": 54096,
      "componentType": 5126,
      "count": 620,
      "max": [
        0.9964606165885925,
        0.9577105641365051,
        1.0
      ],
      "min": [
        -0.999721884727478,
        -0.9564745426177979,
        -0.9999632835388184
      ],
      "type": "VEC3"
    },
    {
      "bufferView": 1,
      "byteOffset": 15552,
      "componentType": 5126,
      "count": 620,
      "max": [
        0.9051008820533752,
        0.9463170766830444
      ],
      "min": [
        0.23624534904956818,
        -0.0066642165184021
      ],
      "type": "VEC2"
    },
    {
      "bufferView": 0,
      "byteOffset": 11904,
      "componentType": 5125,
      "count": 948,
      "type": "SCALAR"
    },
    {
      "bufferView": 2,
      "byteOffset": 61536,
      "componentType": 5126,
      "count": 620,
      "max": [
        0.6035478711128235,
        0.6346079707145691,
        1.0000008344650269
      ],
      "min": [
        -0.6035479307174683,
        -0.6346079111099243,
        -0.8461494445800781
      ],
      "type": "VEC3"
    },
    {
      "bufferView": 2,
      "byteOffset": 68976,
      "componentType": 5126,
      "count": 620,
      "max": [
        0.9940865635871887,
        0.9479401707649231,
        1.0
      ],
      "min": [
        -0.9972347617149353,
        -0.9507026672363281,
        -1.0
      ],
      "type": "VEC3"
    },
    {
      "bufferView": 1,
      "byteOffset": 20512,
      "componentType": 5126,
      "count": 620,
      "max": [
        0.9051008820533752,
        0.9463170766830444
      ],
      "min": [
        0.23624534904956818,
        -0.0066642165184021
      ],
      "type": "VEC2"
    },
    {
      "bufferView": 0,
      "byteOffset": 15696,
      "componentType": 5125,
      "count": 948,
      "type": "SCALAR"
    },
    {
      "bufferView": 2,
      "byteOffset": 76416,
      "componentType": 5126,
      "count": 620,
      "max": [
        0.6035478711128235,
        0.6629279851913452,
        1.0055361986160278
      ],
      "min": [
        -0.5956428050994873,
        -0.634003221988678,
        -0.8497600555419922
      ],
      "type": "VEC3"
    },
    {
      "bufferView": 2,
      "byteOffset": 83856,
      "componentType": 5126,
      "count": 620,
      "max": [
        0.9964606165885925,
        0.9577105641365051,
        1.0
      ],
      "min": [
        -0.999721884727478,
        -0.9564745426177979,
        -0.9999632835388184
      ],
      "type": "VEC3"
    },
    {
      "bufferView": 1,
      "byteOffset": 25472,
      "componentType": 5126,
      "count": 620,
      "max": [
        0.9051008820533752,
        0.9463170766830444
      ],
      "min": [
        0.23624534904956818,
        -0.0066642165184021
      ],
      "type": "VEC2"
    },
    {
      "bufferView": 0,
      "byteOffset": 19488,
      "componentType": 5125,
      "count": 948,
      "type": "SCALAR"
    },
    {
      "bufferView": 2,
      "byteOffset": 91296,
      "componentType": 5126,
      "count": 620,
      "max": [
        0.6035478711128235,
        0.6346079707145691,
        1.0000008344650269
      ],
      "min": [
        -0.6035479307174683,
        -0.6346079111099243,
        -0.8461494445800781
      ],
      "type": "VEC3"
    },
    {
      "bufferView": 2,
      "byteOffset": 98736,
      "componentType": 5126,
      "count": 620,
      "max": [
        0.9940865635871887,
        0.9479401707649231,
        1.0
      ],
      "min": [
        -0.9972347617149353,
        -0.9507026672363281,
        -1.0
      ],
      "type": "VEC3"
    },
    {
      "bufferView": 1,
      "byteOffset": 30432,
      "componentType": 5126,
      "count": 620,
      "max": [
        0.9051008820533752,
        0.9463170766830444
      ],
      "min": [
        0.23624534904956818,
        -0.0066642165184021
      ],
      "type": "VEC2"
    },
    {
      "bufferView": 0,
      "byteOffset": 23280,
      "componentType": 5125,
      "count": 948,
      "type": "SCALAR"
    },
    {
      "bufferView": 2,
      "byteOffset": 106176,
      "componentType": 5126,
      "count": 620,
      "max": [
        0.6035478711128235,
        0.6629279851913452,
        1.0055361986160278
      ],
      "min": [
        -0.5956428050994873,
        -0.634003221988678,
        -0.8497600555419922
      ],
      "type": "VEC3"
    },
    {
      "bufferView": 2,
      "byteOffset": 113616,
      "componentType": 5126,
      "count": 620,
      "max": [
        0.9964606165885925,
        0.9577105641365051,
        1.0
      ],
      "min": [
        -0.999721884727478,
        -0.9564745426177979,
        -0.9999632835388184
      ],
      "type": "VEC3"
    },
    {
      "bufferView": 1,
      "byteOffset": 35392,
      "componentType": 5126,
      "count": 620,
      "max": [
        0.9051008820533752,
        0.9463170766830444
      ],
      "min": [
        0.23624534904956818,
        -0.0066642165184021
      ],
      "type": "VEC2"
    },
    {
      "bufferView": 0,
      "byteOffset": 27072,
      "componentType": 5125,
      "count": 948,
      "type": "SCALAR"
    },
    {
      "bufferView": 2,
      "byteOffset": 121056,
      "componentType": 5126,
      "count": 620,
      "max": [
        0.6035478711128235,
        0.6346079707145691,
        1.0000008344650269
      ],
      "min": [
        -0.6035479307174683,
        -0.6346079111099243,
        -0.8461494445800781
      ],
      "type": "VEC3"
    },
    {
      "bufferView": 2,
      "byteOffset": 128496,
      "componentType": 5126,
      "count": 620,
      "max": [
        0.9940865635871887,
        0.9479401707649231,
        1.0
      ],
      "min": [
        -0.9972347617149353,
        -0.9507026672363281,
        -1.0
      ],
      "type": "VEC3"
    },
    {
      "bufferView": 1,
      "byteOffset": 40352,
      "componentType": 5126,
      "count": 620,
      "max": [
        0.9051008820533752,
        0.9463170766830444
      ],
      "min": [
        0.23624534904956818,
        -0.0066642165184021
      ],
      "type": "VEC2"
    },
    {
      "bufferView": 0,
      "byteOffset": 30864,
      "componentType": 5125,
      "count": 948,
      "type": "SCALAR"
    },
    {
      "bufferView": 2,
      "byteOffset": 135936,
      "componentType": 5126,
      "count": 620,
      "max": [
        0.6035478711128235,
        0.6629279851913452,
        1.0055361986160278
      ],
      "min": [
        -0.5956428050994873,
        -0.634003221988678,
        -0.8497600555419922
      ],
      "type": "VEC3"
    },
    {
      "bufferView": 2,
      "byteOffset": 143376,
      "componentType": 5126,
      "count": 620,
      "max": [
        0.9964606165885925,
        0.9577105641365051,
        1.0
      ],
      "min": [
        -0.999721884727478,
        -0.9564745426177979,
        -0.9999632835388184
      ],
      "type": "VEC3"
    },
    {
      "bufferView": 1,
      "byteOffset": 45312,
      "componentType": 5126,
      "count": 620,
      "max": [
        0.9051008820533752,
        0.9463170766830444
      ],
      "min": [
        0.23624534904956818,
        -0.0066642165184021
      ],
      "type": "VEC2"
    },
    {
      "bufferView": 0,
      "byteOffset": 34656,
      "componentType": 5125,
      "count": 948,
      "type": "SCALAR"
    }
  ],
  "asset": {
    "extras": {
      "author": "zhya (https://sketchfab.com/zzzhya)",
      "license": "CC-BY-4.0 (http://creativecommons.org/licenses/by/4.0/)",
      "source": "https://sketchfab.com/3d-models/low-poly-bucket-of-fried-chicken-psx-n64-style-7751bf7591b84e9892cb745c814b2086",
      "title": "Low Poly Bucket of Fried Chicken PSX N64 style"
    },
    "generator": "Sketchfab-15.38.0",
    "version": "2.0"
  },
  "bufferViews": [
    {
      "buffer": 0,
      "byteLength": 38448,
      "name": "floatBufferViews",
      "target": 34963
    },
    {
      "buffer": 0,
      "byteLength": 50272,
      "byteOffset": 38448,
      "byteStride": 8,
      "name": "floatBufferViews",
      "target": 34962
    },
    {
      "buffer": 0,
      "byteLength": 150816,
      "byteOffset": 88720,
      "byteStride": 12,
      "name": "floatBufferViews",
      "target": 34962
    }
  ],
  "buffers": [
    {
      "byteLength": 239536,
      "uri": "scene.bin"
    }
  ],
  "images": [
    {
      "uri": "textures/Material.001_baseColor.png"
    },
    {
      "uri": "textures/Material_baseColor.png"
    }
  ],
  "materials": [
    {
      "doubleSided": true,
      "name": "Material.001",
      "pbrMetallicRoughness": {
        "baseColorTexture": {
          "index": 0
        },
        "metallicFactor": 0.0
      }
    },
    {
      "doubleSided": true,
      "name": "Material",
      "pbrMetallicRoughness": {
        "baseColorTexture": {
          "index": 1
        },
        "metallicFactor": 0.0,
        "roughnessFactor": 0.8211145618000169
      }
    }
  ],
  "meshes": [
    {
      "name": "Cylinder_Material.001_0",
      "primitives": [
        {
          "attributes": {
            "NORMAL": 1,
            "POSITION": 0,
            "TEXCOORD_0": 2
          },
          "indices": 3,
          "material": 0,
          "mode": 4
        }
      ]
    },
    {
      "name": "Cylinder.001_Material_0",
      "primitives": [
        {
          "attributes": {
            "NORMAL": 5,
            "POSITION": 4,
            "TEXCOORD_0": 6
          },
          "indices": 7,
          "material": 1,
          "mode": 4
        }
      ]
    },
    {
      "name": "Cylinder.006_Material_0",
      "primitives": [
        {
          "attributes": {
            "NORMAL": 9,
            "POSITION": 8,
            "TEXCOORD_0": 10
          },
          "indices": 11,
          "material": 1,
          "mode": 4
        }
      ]
    },
    {
      "name": "Cylinder.007_Material_0",
      "primitives": [
        {
          "attributes": {
            "NORMAL": 13,
            "POSITION": 12,
            "TEXCOORD_0": 14
          },
          "indices": 15,
          "material": 1,
          "mode": 4
        }
      ]
    },
    {
      "name": "Cylinder.008_Material_0",
      "primitives": [
        {
          "attributes": {
            "NORMAL": 17,
            "POSITION": 16,
            "TEXCOORD_0": 18
          },
          "indices": 19,
          "material": 1,
          "mode": 4
        }
      ]
    },
    {
      "name": "Cylinder.009_Material_0",
      "primitives": [
        {
          "attributes": {
            "NORMAL": 21,
            "POSITION": 20,
            "TEXCOORD_0": 22
          },
          "indices": 23,
          "material": 1,
          "mode": 4
        }
      ]
    },
    {
      "name": "Cylinder.010_Material_0",
      "primitives": [
        {
          "attributes": {
            "NORMAL": 25,
            "POSITION": 24,
            "TEXCOORD_0": 26
          },
          "indices": 27,
          "material": 1,
          "mode": 4
        }
      ]
    },
    {
      "name": "Cylinder.011_Material_0",
      "primitives": [
        {
          "attributes": {
            "NORMAL": 29,
            "POSITION": 28,
            "TEXCOORD_0": 30
          },
          "indices": 31,
          "material": 1,
          "mode": 4
        }
      ]
    },
    {
      "name": "Cylinder.012_Material_0",
      "primitives": [
        {
          "attributes": {
            "NORMAL": 33,
            "POSITION": 32,
            "TEXCOORD_0": 34
          },
          "indices": 35,
          "material": 1,
          "mode": 4
        }
      ]
    },
    {
      "name": "Cylinder.013_Material_0",
      "primitives": [
        {
          "attributes": {
            "NORMAL": 37,
            "POSITION": 36,
            "TEXCOORD_0": 38
          },
          "indices": 39,
          "material": 1,
          "mode": 4
        }
      ]
    },
    {
      "name": "Cylinder.014_Material_0",
      "primitives": [
        {
          "attributes": {
            "NORMAL": 41,
            "POSITION": 40,
            "TEXCOORD_0": 42
          },
          "indices": 43,
          "material": 1,
          "mode": 4
        }
      ]
    }
  ],
  "nodes": [
    {
      "children": [
        1
      ],
      "matrix": [
        1.0,
        0.0,
        0.0,
        0.0,
        0.0,
        2.220446049250313e-16,
        -1.0,
        0.0,
        0.0,
        1.0,
        2.220446049250313e-16,
        0.0,
        0.0,
        0.0,
        0.0,
        1.0
      ],
      "name": "Sketchfab_model"
    },
    {
      "children": [
        2
      ],
      "matrix": [
        0.009999999776482582,
        0.0,
        0.0,
        0.0,
        0.0,
        0.0,
        0.009999999776482582,
        0.0,
        0.0,
        -0.009999999776482582,
        0.0,
        0.0,
        0.0,
        0.0,
        0.0,
        1.0
      ],
      "name": "kfcbucketwithchicken.fbx"
    },
    {
      "children": [
        3,
        5,
        7,
        9,
        11,
        13,
        15,
        17,
        19,
        21,
        23
      ],
      "name": "RootNode"
    },
    {
      "children": [
        4
      ],
      "matrix": [
        100.0,
        0.0,
        0.0,
        0.0,
        0.0,
        -1.629206793918314e-05,
        -99.99999999999868,
        0.0,
        0.0,
        99.99999999999868,
        -1.629206793918314e-05,
        0.0,
        0.0,
        106.21355438232422,
        0.0,
        1.0
      ],
      "name": "Cylinder"
    },
    {
      "mesh": 0,
      "name": "Cylinder_Material.001_0"
    },
    {
      "children": [
        6
      ],
      "matrix": [
        4.360423952410178,
        -22.470368202997342,
        29.472555813427935,
        0.0,
        -5.222988108683442,
        29.007093983611796,
        22.888226220802377,
        0.0,
        -43.01937948559146,
        -7.972141388252263,
        0.28656423351535065,
        0.0,
        -34.11558532714844,
        107.8729476928711,
        -26.774066925048828,
        1.0
      ],
      "name": "Cylinder.001"
    },
    {
      "mesh": 1,
      "name": "Cylinder.001_Material_0"
    },
    {
      "children": [
        8
      ],
      "matrix": [
        -28.51661790445803,
        3.264990642930539,
        -23.847528798417898,
        0.0,
        -1.3598839715626505,
        36.69455237502594,
        6.650024960781441,
        0.0,
        28.176039357074885,
        6.9770696085931245,
        -32.73736612371081,
        0.0,
        32.44211959838867,
        89.7269515991211,
        10.184272766113281,
        1.0
      ],
      "name": "Cylinder.006"
    },
    {
      "mesh": 2,
      "name": "Cylinder.006_Material_0"
    },
    {
      "children": [
        10
      ],
      "matrix": [
        31.88375089042371,
        -19.389696408146182,
        -0.16765455403907545,
        0.0,
        19.36875340930934,
        31.831682907093022,
        2.0389606086953536,
        0.0,
        -1.0744664969265671,
        -2.1445585620056646,
        43.686957152147656,
        0.0,
        -27.212688446044922,
        101.8793716430664,
        27.785783767700195,
        1.0
      ],
      "name": "Cylinder.007"
    },
    {
      "mesh": 3,
      "name": "Cylinder.007_Material_0"
    },
    {
      "children": [
        12
      ],
      "matrix": [
        -10.22387162806887,
        -33.07898682243027,
        -13.921758873536945,
        0.0,
        -2.5162684445271597,
        -13.779323643388885,
        34.588450723391354,
        0.0,
        -41.9751062735532,
        12.2112248963321,
        1.8110607224910702,
        0.0,
        46.326446533203125,
        99.34999084472656,
        47.424076080322266,
        1.0
      ],
      "name": "Cylinder.008"
    },
    {
      "mesh": 4,
      "name": "Cylinder.008_Material_0"
    },
    {
      "children": [
        14
      ],
      "matrix": [
        14.49376413878927,
        9.30717681202958,
        -26.60242244872183,
        0.0,
        26.391675783934907,
        5.401979826783217,
        16.26889078454702,
        0.0,
        12.024230797742808,
        -38.21212821403204,
        -6.817825288982449,
        0.0,
        -72.8464584350586,
        118.92259216308594,
        41.925804138183594,
        1.0
      ],
      "name": "Cylinder.009"
    },
    {
      "mesh": 5,
      "name": "Cylinder.009_Material_0"
    },
    {
      "children": [
        16
      ],
      "matrix": [
        -21.41934904149215,
        -14.875253532692994,
        7.2069662023476475,
        0.0,
        -16.438123909942615,
        20.40639968795958,
        -6.735642044592864,
        0.0,
        -2.031293273107162,
        -11.386011713450767,
        -29.537919924858958,
        0.0,
        -6.118655204772949,
        118.0886001586914,
        -44.715877532958984,
        1.0
      ],
      "name": "Cylinder.010"
    },
    {
      "mesh": 6,
      "name": "Cylinder.010_Material_0"
    },
    {
      "children": [
        18
      ],
      "matrix": [
        3.982029783183431,
        6.06370644195313,
        -25.96785679810032,
        0.0,
        26.650917144272942,
        -0.009756311938590343,
        4.084495198458445,
        0.0,
        1.0659960780787499,
        -30.802160310602467,
        -7.0290910485597005,
        0.0,
        -1.0220699310302734,
        114.87028503417969,
        86.1191177368164,
        1.0
      ],
      "name": "Cylinder.011"
    },
    {
      "mesh": 7,
      "name": "Cylinder.011_Material_0"
    },
    {
      "children": [
        20
      ],
      "matrix": [
        23.20495303002375,
        -27.849227080409747,
        -8.860739900839322,
        0.0,
        28.100239190472784,
        18.153278780455942,
        16.534730640561314,
        0.0,
        -9.413978987149244,
        -19.87799568697879,
        37.822561018398,
        0.0,
        10.8271484375,
        121.33746337890625,
        -5.665160655975342,
        1.0
      ],
      "name": "Cylinder.012"
    },
    {
      "mesh": 8,
      "name": "Cylinder.012_Material_0"
    },
    {
      "children": [
        22
      ],
      "matrix": [
        -1.1244205619977676,
        -22.48035321701826,
        -29.764599834871202,
        0.0,
        24.97931556220231,
        21.66075434123521,
        -17.30339623035718,
        0.0,
        32.4780294331561,
        -23.971221941187114,
        16.87785406021364,
        0.0,
        25.788509368896484,
        116.37138366699219,
        -56.938053131103516,
        1.0
      ],
      "name": "Cylinder.013"
    },
    {
      "mesh": 9,
      "name": "Cylinder.013_Material_0"
    },
    {
      "children": [
        24
      ],
      "matrix": [
        -12.344857442299404,
        -11.918691161447141,
        -23.107917540127268,
        0.0,
        15.87044769724609,
        16.808056001936944,
        -17.147734848511305,
        0.0,
        24.146990652131567,
        -23.562097076075087,
        -0.7470079926219851,
        0.0,
        57.04520797729492,
        109.21963500976563,
        25.356552124023438,
        1.0
      ],
      "name": "Cylinder.014"
    },
    {
      "mesh": 10,
      "name": "Cylinder.014_Material_0"
    }
  ],
  "samplers": [
    {
      "magFilter": 9729,
      "minFilter": 9987,
      "wrapS": 10497,
      "wrapT": 10497
    }
  ],
  "scene": 0,
  "scenes": [
    {
      "name": "Sketchfab_Scene",
      "nodes": [
        0
      ]
    }
  ],
  "textures": [
    {
      "sampler": 0,
      "source": 0
    },
    {
      "sampler": 0,
      "source": 1
    }
  ]
}
