<svg preserveAspectRatio="none" overflow="visible" style="display: block;" width="370.405" height="20.1541" viewBox="0 0 370.405 20.1541" fill="none" xmlns="http://www.w3.org/2000/svg">
<g id="Group">
<path id="Vector" d="M370.309 4.08999C370.509 4.00999 370.409 3.81 369.869 3.83L369.479 4.14999L370.319 4.08999H370.309Z" fill="#B62023"/>
<path id="Vector_2" d="M366.709 3.34999C366.069 3.48999 365.329 3.75 365.729 4.06C366.369 3.76 366.519 3.9 367.199 3.55C367.739 3.53 368.139 3.69 368.039 3.81C368.229 3.73 368.869 3.90999 369.169 3.70999C368.479 3.42999 367.589 3.38999 366.659 3.56999C366.459 3.48999 366.659 3.40999 366.709 3.34999Z" fill="#B62023"/>
<path id="Vector_3" d="M314.089 1.41L314.429 1.45C314.339 1.43 314.219 1.41 314.089 1.41Z" fill="#B62023"/>
<path id="Vector_4" d="M281.459 0.860001C281.709 0.860001 281.809 0.819993 281.829 0.789993C281.599 0.809993 281.409 0.830001 281.459 0.860001Z" fill="#B62023"/>
<path id="Vector_5" d="M275.889 0.480003C276.009 0.480003 276.109 0.500007 276.219 0.500007C276.089 0.470007 275.969 0.450003 275.889 0.480003Z" fill="#B62023"/>
<path id="Vector_6" d="M314.089 1.41L313.219 1.28999C313.159 1.39999 313.669 1.38 314.089 1.41Z" fill="#B62023"/>
<path id="Vector_7" d="M359.429 3.89999C359.609 3.89999 359.769 3.86 359.909 3.83C359.759 3.83 359.609 3.83999 359.459 3.84999C359.459 3.86999 359.439 3.87999 359.429 3.89999Z" fill="#B62023"/>
<path id="Vector_8" d="M328.469 1.44H328.729C328.809 1.41 328.879 1.36999 328.949 1.31999L328.459 1.44H328.469Z" fill="#B62023"/>
<path id="Vector_9" d="M339.509 1.66C339.259 1.64 339.169 1.91999 339.069 2.03999C339.209 1.92999 339.399 1.88 339.619 1.86C339.619 1.81 339.589 1.74 339.509 1.66Z" fill="#B62023"/>
<path id="Vector_10" d="M356.989 2.67L357.299 2.64C357.219 2.64 357.079 2.66 356.989 2.67Z" fill="#B62023"/>
<path id="Vector_11" d="M320.569 1.20999C320.569 1.20999 320.509 1.13 320.469 1.11C320.469 1.15 320.509 1.17999 320.569 1.20999Z" fill="#B62023"/>
<path id="Vector_12" d="M12.8892 17.4C12.8892 17.4 12.8792 17.37 12.8792 17.35C12.8192 17.39 12.8092 17.42 12.8892 17.4Z" fill="#B62023"/>
<path id="Vector_13" d="M0.179199 19.23L0.349243 19.17C0.349243 19.11 0.349243 19.06 0.349243 19.01L0.189209 19.23H0.179199Z" fill="#B62023"/>
<path id="Vector_14" d="M265.689 0.0999841C265.689 0.0999841 265.719 0.0999841 265.739 0.0999841C266.009 0.0699841 265.859 0.0699841 265.689 0.0999841Z" fill="#B62023"/>
<path id="Vector_15" d="M172.089 1.92C173.159 2.14 170.379 2.3 171.979 2.53C171.829 2.42 173.419 2.05 172.089 1.92Z" fill="#B62023"/>
<path id="Vector_16" d="M359.139 3.84999C358.989 3.84999 358.839 3.85 358.689 3.84C358.899 3.86 359.029 3.85999 359.139 3.84999Z" fill="#B62023"/>
<path id="Vector_17" d="M171.979 2.51999L172.149 2.53999C172.079 2.53999 172.039 2.51999 171.979 2.51999Z" fill="#B62023"/>
<path id="Vector_18" d="M242.199 0.369995C242.199 0.369995 242.339 0.45999 242.439 0.48999C242.439 0.45999 242.379 0.429995 242.199 0.369995Z" fill="#B62023"/>
<path id="Vector_19" d="M259.699 0.669998L259.269 0.62999C259.439 0.64999 259.579 0.659998 259.699 0.669998Z" fill="#B62023"/>
<path id="Vector_20" d="M233.109 0.869989C232.869 0.849989 232.789 0.809985 232.469 0.849985C232.499 0.859985 232.529 0.869983 232.569 0.879983C232.689 0.839983 232.839 0.819994 233.109 0.859994V0.869989Z" fill="#B62023"/>
<path id="Vector_21" d="M223.649 0.98999C223.699 1.00999 223.769 1.02999 223.829 1.03999C223.919 1.03999 224.029 1.02999 224.129 1.01999L223.659 0.98999H223.649Z" fill="#B62023"/>
<path id="Vector_22" d="M41.0493 12.41C40.8393 12.36 40.6992 12.29 40.5892 12.21C40.7592 12.39 39.3893 12.63 41.0493 12.41Z" fill="#B62023"/>
<path id="Vector_23" d="M359.429 3.73999C359.369 3.80999 359.289 3.83999 359.149 3.84999C359.259 3.84999 359.359 3.84999 359.459 3.84999C359.489 3.80999 359.499 3.76999 359.429 3.73999Z" fill="#B62023"/>
<path id="Vector_24" d="M232.749 3.09999L231.249 3.08C231.669 3.1 232.219 3.10999 232.749 3.09999Z" fill="#B62023"/>
<path id="Vector_25" d="M108.589 7.14L108.249 7.19C108.379 7.19 108.499 7.17 108.589 7.14Z" fill="#B62023"/>
<path id="Vector_26" d="M226.799 3.17C226.529 3.07 226.249 3.01999 225.949 2.98999C225.889 3.00999 225.819 3.03 225.779 3.06L226.799 3.17Z" fill="#B62023"/>
<path id="Vector_27" d="M30.9092 14.25C32.3192 14.04 31.5192 13.79 31.7792 13.54C33.4492 13.18 32.5992 13.69 33.1992 13.79C34.2292 13.53 34.9892 13.08 35.7792 12.99C35.8492 13.04 35.9992 13.04 35.8292 13.14C36.8992 12.7 39.1292 12.66 40.3892 12.14C40.4892 12.16 40.5392 12.19 40.5692 12.21C40.3392 12.05 40.2792 11.87 40.3092 11.73C40.9492 11.65 41.4592 11.35 41.7292 11.56C41.3392 11.6 41.3192 11.7 41.1492 11.8L41.7992 11.61C42.4392 11.88 40.9092 11.84 40.9392 12.1C42.2192 11.83 43.6992 11.35 44.7092 11.34C44.9592 11.65 42.3892 11.73 43.7592 11.87L42.1992 11.93C43.4392 12.32 41.2592 12.01 42.4092 12.44C44.4392 12.28 44.6492 11.99 46.6892 11.87C47.1192 11.63 46.5092 11.61 46.9392 11.37C49.7792 10.71 49.2892 11.97 51.3592 11.31C51.8792 11.03 52.0592 10.58 53.5892 10.66L53.1092 11.09C55.0792 10.93 54.1792 10.43 56.2692 10.5C55.9192 10.68 54.7292 10.77 55.0392 10.79C56.3992 10.97 55.9592 10.49 56.9892 10.39L57.2292 10.71C59.3192 10.46 61.6092 10.03 63.9292 9.76999C63.8092 9.87999 63.4192 10.02 63.9692 10.08C66.8892 9.67999 70.2392 9.63998 73.0792 9.63998L74.1392 9.26999C74.3892 9.25999 74.6192 9.36998 74.3492 9.44998C75.4592 9.47998 74.3892 9.25998 74.9192 9.10999C75.5492 9.04998 75.7592 9.22 75.3692 9.34C77.2992 8.95 80.8792 8.42999 82.9592 8.60999L82.5692 8.72C84.1792 8.74 84.3392 7.99999 85.8392 8.17999L85.5592 8.25C89.0392 8.15 92.8592 7.64 95.5292 7.91C96.0092 7.45 98.9792 7.88999 99.1692 7.28999C101.169 7.46999 100.609 7.59998 103.409 7.63998C104.159 7.61998 104.499 7.21 105.419 7.09L105.459 7.39999L106.689 7L107.379 7.33L108.239 7.2C107.889 7.2 107.499 7.09999 107.549 7.00999C108.889 6.78999 110.859 7.03 110.899 7.19L114.079 6.73999C114.019 6.86999 113.479 6.94 113.059 7.05C114.749 6.64 113.389 7.36 114.939 6.98C114.729 6.92 115.039 6.79 115.079 6.73C115.869 6.87 117.639 6.79 118.949 6.64L118.709 6.87C121.079 6.79999 123.699 6.50999 126.359 6.37999C125.399 6.32999 125.599 5.94999 126.379 5.87999L126.709 6.19C127.199 5.96 125.889 6.11 126.909 5.81C127.909 5.8 127.599 6.15 127.029 6.28L128.229 6.09999C128.309 6.18999 128.019 6.26 127.959 6.39C128.449 6.16 130.059 6.61 130.759 6.22L130.829 6.31C133.489 6.17 134.689 6.00999 136.859 5.89999C136.889 5.61999 137.739 5.64 138.379 5.39C139.979 5.41 141.759 5.55 143.669 5.44C145.009 5.24 144.049 5.17999 144.649 4.98999C144.759 5.23999 146.679 5.13 145.689 5.36C147.989 5.22 148.629 5.18 151.539 4.84C151.219 4.75 150.859 4.72 151.039 4.62C151.569 4.54999 152.249 4.68 152.179 4.8L152.039 4.83C155.299 4.32 159.619 5.28999 162.199 4.64999L162.049 4.67999L164.739 4.3C165.979 4.3 163.999 4.52 164.929 4.64C167.829 4.1 169.539 4.52 171.929 4.16C173.809 4.86 178.519 3.9 181.039 4.3L180.889 4.12999C181.529 3.92999 181.679 4.21 182.159 4.23C182.089 4.09 181.449 4.09 181.849 3.98C187.329 3.58 193.189 3.90999 198.819 3.92999C200.879 3.92999 199.969 2.98 202.569 3.34L201.839 3.69C205.989 3.18 210.339 3.52 214.399 3.11C214.159 3.19 214.149 3.29 213.759 3.3C214.619 3.52 216.939 3.25 216.949 3.06C217.579 3.07 217.099 3.23 217.489 3.33C218.349 3.46 219.649 2.97999 220.109 3.20999C220.189 3.24999 219.869 3.29 219.709 3.31C220.269 3.18 222.329 3.28999 221.789 3.01999C223.319 3.11999 224.709 2.83999 225.929 2.98999C226.719 2.66999 228.549 3.11 228.789 2.67C228.689 3.12 231.469 3 232.439 2.78C232.119 2.92 233.279 2.91 232.899 3.11C233.999 3.09 235.009 2.98999 234.819 2.75999C236.859 3.27999 238.899 2.27999 240.049 2.95999C243.319 2.66999 246.349 2.50999 249.289 2.37999C249.189 2.82999 246.029 2.44 246.159 2.92C248.949 2.72 250.559 2.32 253.329 2.42C254.049 2.48 252.919 2.62 252.679 2.7C255.469 2.5 258.079 2.71 260.559 2.45C260.559 2.49 260.289 2.54 260.029 2.58C260.519 2.56 261.169 2.64 261.109 2.44L260.629 2.5C259.849 2.2 262.569 1.88 262.659 1.72C261.829 2.31 265.109 1.87 263.789 2.61C264.109 2.57 264.519 2.48 264.439 2.34C264.919 2.38 265.069 2.46 264.589 2.62C266.339 2.51 265.719 2.29 267.309 2.3C267.309 2.4 266.979 2.44 266.819 2.55C267.619 2.36 268.429 2.16 269.779 2.25C269.699 2.31 269.849 2.39 269.449 2.39C271.759 2.36 273.379 1.87999 275.909 2.06999C275.159 2.49999 276.769 2.21 276.899 2.59L278.259 2.48L277.709 2.3C278.899 2.3 279.959 2.04 280.979 2.17L280.089 2.31999L282.319 2.26999L281.059 2.12C282.269 1.94 280.929 1.64999 282.519 1.75999C282.199 1.79999 283.709 1.77 284.329 2C284.919 1.89 285.529 1.77 286.409 1.87C286.639 1.99 286.219 2.28 286.369 2.36C286.949 2.05 289.159 2.3 289.899 1.97C289.649 2.05 289.639 2.24 289.719 2.28L290.209 2.03C290.759 2.12 290.839 2.16 290.749 2.31C292.409 2.37 290.229 1.83 292.199 2.05C292.049 2.07 292.119 2.11 291.799 2.14C293.779 2.26 295.629 2.01 297.439 2.14C297.969 2.52 295.849 2.21999 296.459 2.53999C299.079 2.49999 301.889 2.16999 304.429 2.28999L303.959 2.23999C304.319 1.70999 305.849 2.53 307.129 2.3C306.819 2.33 306.709 2.59 306.799 2.53C308.539 2.64 310.349 2.44999 312.989 2.31999L312.659 2.45C313.679 2.59 315.359 2.55 316.459 2.64C316.789 2.51 317.419 2.55 317.039 2.34C320.429 3.19 323.549 2.05999 326.569 2.76999C326.209 2.76999 325.709 2.86999 325.989 2.87999L328.569 2.81C328.369 2.57 328.239 2.66 327.699 2.47C328.029 2.34 328.759 2.24999 329.399 2.25999C328.239 2.38999 329.399 2.62999 329.899 2.76999C329.819 2.69999 329.989 2.62 329.949 2.55C331.289 2.99 330.189 2.09 332.019 2.41L331.919 2.53C332.609 2.48 333.249 2.34 333.989 2.39C334.289 2.66 333.249 2.5 333.199 2.72C334.239 2.72 335.269 2.27 336.199 2.56C335.759 2.62 335.119 2.61 334.669 2.67C335.689 3.01 335.809 2.93999 336.569 3.00999H336.499L338.259 3.19L337.809 3.09C339.129 2.43 340.469 3.03999 342.239 2.62999C340.519 3.00999 341.949 2.87 341.809 3.17C342.259 3.27 342.939 3.37999 342.739 3.45999C343.579 3.23999 344.119 3.69 345.299 3.37C345.349 3.47 346.189 3.4 345.989 3.64C347.069 3.59 345.739 3.46 345.829 3.34C347.499 3.05 349.729 3.84999 352.129 3.45999C354.199 3.33999 354.589 3.02999 356.509 2.92999C357.149 3.10999 355.969 3.26999 355.969 3.26999C357.009 3.44999 357.789 3.45 358.779 3.37C358.579 3.45 358.779 3.52999 359.079 3.64999C359.869 3.64999 359.619 3.30999 360.649 3.48999C360.469 3.58999 360.229 3.75999 359.849 3.84999C360.779 3.78999 361.709 3.64 362.669 3.59C362.919 3.77 362.079 3.82999 361.739 3.92999C362.819 3.88999 364.549 3.87 364.889 3.62L364.199 3.5C364.589 3.5 364.389 3.74 364.099 3.78C363.169 3.96 362.769 3.63999 362.719 3.53999L363.409 3.5C362.729 2.9 360.659 3.5 359.279 3.42L359.869 3.01999L358.439 3.31999C358.139 3.19999 357.939 2.96 358.629 2.92C357.649 2.68 357.749 3.04 356.909 2.78C356.819 2.74 356.859 2.71999 356.949 2.70999L355.979 2.8C356.169 2.72 355.829 2.5 356.419 2.58C354.689 2.28 353.609 2.79999 352.969 2.45999L353.119 2.44C350.709 2.5 352.879 2.73999 351.059 3.03999L349.869 2.25L349.619 2.55C349.369 2.53 348.879 2.49999 348.979 2.37999C348.049 2.55999 349.129 2.52 348.589 2.7C347.399 2.39 345.289 2.73999 345.039 2.23999C344.599 2.45999 346.179 2.45 344.899 2.58C344.549 2.05 343.419 2.63 342.339 2.36C342.679 2.1 343.709 2.27 342.629 2C341.959 2.44 340.509 1.83999 339.579 1.89999C339.529 2.25999 337.569 1.99999 336.029 2.06999C336.129 1.94999 333.129 1.78999 331.689 1.62999L331.729 1.56999C331.439 1.92999 329.959 1.82999 328.879 1.87999C328.929 1.65999 329.119 1.57999 329.709 1.48999L328.699 1.47C328.459 1.58 328.139 1.64 327.479 1.67L327.739 1.39999C326.389 1.38999 325.009 1.67 323.279 1.45C323.179 1.7 324.649 2.18999 322.809 2.31999C322.739 2.17999 322.679 1.93999 323.159 1.89999C322.999 1.90999 322.599 2 322.279 1.94L323.019 1.72C322.229 1.6 322.599 1.91 321.969 1.87C321.989 1.67 321.499 1.72 321.599 1.56C321.759 1.54 322.149 1.65 322.389 1.58C321.679 1.53 320.819 1.38999 320.529 1.23999C320.589 1.34999 320.529 1.50999 319.999 1.51999C318.649 1.50999 319.539 1.26999 318.759 1.14999C318.429 1.27999 317.569 1.12 317.539 1.41C317.139 1.41 317.069 1.25999 316.919 1.17999C316.219 1.28999 313.649 1.15999 314.439 1.48999L314.619 1.50999C314.619 1.50999 314.549 1.50999 314.509 1.51999C312.209 1.77999 309.749 1.27999 307.479 1.37999V1.28C306.129 1.37 304.459 1.3 303.489 1.5C303.089 1.5 302.539 1.31 302.719 1.19C301.679 1.25 301.559 1.36 300.069 1.17C301.119 1.01 299.709 1.01 301.139 1.06C299.789 0.959998 299.489 0.789993 298.039 1.03999C298.539 0.789993 297.029 0.709999 296.389 0.779999L297.329 0.970001C296.609 1 295.979 0.969997 295.339 0.949997L295.689 0.619995C292.929 0.189995 290.709 1.26999 288.609 0.569992C287.879 0.799992 290.109 0.749995 289.449 1.00999C288.179 0.959994 286.859 0.469991 286.459 0.459991C284.719 0.259991 284.829 0.929993 283.019 0.789993C283.249 0.909993 283.469 1.23 282.109 1.33C280.839 1.28 280.549 0.819996 281.349 0.729996C281.649 0.729996 281.799 0.760003 281.789 0.800003C282.199 0.760003 282.739 0.710002 282.239 0.580002L282.069 0.699997C281.439 0.569997 279.689 0.56999 280.099 0.37999C279.139 0.48999 279.689 0.569999 280.399 0.639999C278.769 0.449999 277.849 0.629995 276.179 0.509995C276.449 0.579994 276.689 0.719991 276.429 0.709991C273.969 0.559991 275.349 0.929996 273.679 0.979996C272.729 0.799996 274.019 0.549997 272.339 0.699997C271.319 0.579997 272.119 0.379993 272.529 0.289993C270.999 0.519993 269.669 0.139996 268.799 0.0899963L269.609 0C269.129 0.06 268.729 0.0500031 268.329 0.0500031L268.789 0.289993C268.319 0.249993 267.919 0.249994 267.929 0.149994C267.439 0.299994 268.299 0.549995 267.339 0.759995C266.709 0.639995 265.419 0.889992 265.199 0.569992C267.179 0.679992 264.979 0.249997 266.659 0.199997C266.339 0.239997 265.939 0.239997 265.469 0.199997C265.399 0.159997 265.539 0.129995 265.669 0.119995C263.769 -0.160005 264.799 0.480001 262.829 0.470001C263.079 0.290001 262.369 0.129998 262.049 0.169998C262.839 0.169998 262.429 0.469991 261.699 0.599991C260.439 0.459991 260.329 0.710002 259.669 0.690002L260.419 0.75C260.169 0.93 259.529 0.910001 258.659 0.970001C258.579 0.830001 259.459 0.869998 259.139 0.809998C258.169 1.13 256.929 0.500001 255.579 0.720001C254.949 0.600001 255.519 0.389998 254.959 0.309998C253.439 0.549998 253.309 0.079989 251.709 0.269989C252.169 0.509989 252.249 0.450002 251.129 0.690002L253.759 0.509995L252.069 0.869995C252.859 0.869995 253.749 0.71 254.219 0.75C253.419 0.95 253.499 0.889996 253.879 1.09C252.789 0.739996 251.719 1.30999 250.469 1.06999L250.499 0.479996C248.609 0.229996 247.139 0.799998 244.689 0.669998L245.479 0.769989C245.149 1.00999 243.959 0.810004 243.169 0.910004C243.239 0.710004 242.739 0.639989 242.399 0.519989C242.439 0.669989 240.599 0.519998 240.379 0.919998L239.279 0.669998C237.299 0.589998 237.019 1.25999 235.119 1.20999C235.689 0.989991 234.819 0.860002 236.099 0.690002C235.459 0.690002 234.889 0.670003 234.879 0.800003C234.509 0.680003 233.119 1.09 232.529 0.910004C232.259 1 232.179 1.21 231.459 1.2C231.379 1.16 231.459 1.09999 231.459 1.09999C231.459 1.19999 230.339 1.24999 230.969 1.45999C228.999 0.869991 225.489 1.55999 223.779 1.06999C222.389 1.15999 220.719 1.25999 219.459 1.28999C219.539 1.22999 219.459 1.18999 219.699 1.20999C217.959 1.05999 218.639 1.79999 216.659 1.62999C215.639 1.32999 217.709 1.44 217.079 1.33C216.789 0.690002 214.689 1.46 213.359 1.11L213.679 1.06999C212.659 0.869992 211.199 1.35999 209.539 1.34999C209.539 1.34999 209.619 1.29 209.539 1.25C208.409 1.6 206.259 1.74999 204.659 1.87999C205.149 1.60999 205.379 1.73 205.069 1.48C204.349 1.53 205.289 1.89 203.859 2C203.389 1.87 202.359 1.78 202.209 1.5L203.559 1.45C202.859 1.11 201.809 1.50999 201.099 1.45999L201.189 1.3C199.119 1.4 199.099 1.79999 196.879 1.81999L197.109 1.92999C195.909 2.34999 196.089 1.74 194.879 2.06L194.499 1.67C193.699 1.79 191.699 2.12 190.269 2.23C191.079 1.92 192.749 1.73 193.789 1.53C192.999 1.55 191.089 1.63 190.679 1.83C190.999 1.78 191.399 1.68 191.719 1.73C190.749 2.07 189.479 2.25 187.889 2.28C188.149 1.51 183.759 2.22 182.589 1.66C179.799 2.03 177.029 1.72 173.769 1.86C174.949 2.42 172.819 1.90999 173.039 2.50999C172.279 2.56999 171.989 2.57 171.919 2.53L169.599 2.23999C169.049 2.07999 170.319 2.08 170.239 1.95C168.569 1.96 169.529 1.72 168.429 1.59C168.659 1.8 167.859 1.92999 166.909 1.87999L168.259 2.11C165.949 2.52 166.229 1.67 163.899 2.09L164.629 1.87C163.429 2.03 160.189 2.03999 159.029 2.56999C158.809 2.50999 158.529 2.34999 159.049 2.28999C156.169 2.32999 152.669 3.04999 150.429 2.84999L150.639 2.69C150.109 2.76 149.719 3.01 149.039 2.89C149.069 2.83 149.249 2.73 148.999 2.73C148.719 2.79 147.589 3.06 146.869 3L147.469 2.8C144.659 2.73 143.189 3.4 140.839 3.61C140.829 3.17 138.609 3.12999 137.509 3.09999L137.549 3.03999C134.279 3.12999 132.019 3.65999 129.009 3.98999C127.109 3.60999 122.649 4.11999 119.619 4.00999C120.089 4.06999 119.559 4.35999 119.029 4.42999C118.319 4.37999 117.089 4.83999 117.179 4.42999H117.429C116.879 4.05999 115.429 4.22999 114.289 4.28999L114.129 4.83C111.119 4.24 106.369 5.56 104.709 4.97C103.999 5.14 103.109 5.19 102.409 5.37L102.429 5.09C100.439 5.13 99.4492 5.16 96.9992 5.37L97.4892 5.14C96.1092 5.2 95.7892 6.06 94.5192 6.16L94.1092 5.75999C91.6992 5.91999 89.2292 5.71 86.8692 6.25C86.9092 6.19 86.9692 6.05999 87.3592 6.01999C86.2192 6.07999 82.9492 6.01999 83.3992 6.56999C83.3492 6.18999 80.9092 6.69 79.6192 6.94L79.7992 6.64999C78.7192 7.07999 78.6992 7.17 77.1692 7.38C76.7992 7.37 76.8392 7.18 77.3192 7.22C76.0992 7.16 76.3892 7.55 74.9092 7.5L75.4492 7.28C74.1992 7.34 74.3092 7.43 73.6292 7.69C72.8492 7.86 71.2592 7.78999 71.0592 7.54999C70.8992 7.71999 70.2292 7.96998 69.4892 7.94998C69.3792 7.85998 69.6492 7.78 69.7792 7.75C67.6792 7.71 66.6992 8.30999 65.2492 8.14999C65.2092 8.05999 65.1192 8.02 64.9892 8C66.6492 7.88 67.9792 7.79001 67.8592 7.82001C67.8392 7.56001 66.4992 7.62 67.5392 7.19C66.4792 7.47 64.6692 8.03001 63.3592 8.01001C63.2892 7.99001 63.2292 7.97 63.1792 7.94L63.3092 7.89999C63.0092 7.89999 62.7392 7.95001 62.4892 8.01001C62.0692 8.01001 61.7992 7.98999 61.3992 8.01999C61.2292 7.81999 59.8592 8.02999 59.1892 8.07999C59.2692 8.35999 58.3892 8.37999 59.2292 8.54999C59.1192 8.53999 59.3492 8.50999 59.7992 8.45999C59.8992 8.43999 60.0192 8.43 60.0792 8.41C60.0692 8.41 60.0492 8.43 60.0392 8.44C60.4792 8.4 61.0492 8.34 61.6992 8.28C61.1792 8.47 60.6392 8.63001 59.8892 8.54001C59.5592 8.75001 59.1992 8.97001 58.9992 9.07001C58.0492 8.76001 56.2792 8.70999 56.0092 8.48999C53.9892 8.81999 51.2192 9.05999 49.9992 9.70999C49.4292 9.83999 49.3192 9.63001 49.0892 9.57001C49.4192 9.48001 49.8192 9.44999 49.9892 9.35999C48.8492 9.59999 46.5692 9.78999 46.3392 10.18C44.8692 10.18 47.1192 9.75 45.1292 10.03L45.3892 9.88998C41.3792 9.75998 39.1092 11.59 34.6692 11.44C34.9792 11.44 35.1292 11.44 35.1992 11.5C30.1892 11.88 25.0492 13.36 20.1092 13.8C18.7092 13.95 18.6092 14.24 17.7992 14.58L17.4392 14.35L16.0792 14.99C14.0992 15.64 12.3992 15.05 9.9392 16.1L10.3192 16.22C9.3892 16.39 7.43924 17.06 7.53924 16.79C7.45924 16.85 7.28923 17.07 6.90923 17.06L6.83922 16.91L4.65923 17.75C2.89923 18.12 4.76924 17.07 2.22924 17.75C1.29924 18.07 -0.330806 18.94 0.0591936 18.94C0.439194 18.84 1.0592 18.77 1.1292 18.91L0.289235 19.23C0.259235 19.72 -0.260811 20.36 1.92919 20.09L3.3192 19.41L3.84923 19.5L2.61919 19.85C3.36919 19.86 3.76924 19.56 4.22924 19.3C4.37924 19.38 4.60923 19.41 4.90923 19.37C5.34923 19.09 5.78919 18.83 6.23919 18.57C6.45919 18.7 5.67919 19.08 6.67919 18.94C7.30919 18.57 5.92922 18.71 7.01922 18.29C7.77922 18.32 7.60922 18.54 8.39922 18.15C8.54922 18.24 8.3892 18.36 8.0692 18.49C8.7692 18.17 9.9992 17.93 10.3192 17.61C11.1192 17.7 12.7992 16.97 12.8292 17.42C13.0392 17.26 14.0592 16.78 14.7292 16.61C13.5992 17.39 17.2892 16.1 17.0792 16.73C17.8992 16.07 20.3692 15.83 21.9592 15.28C21.8792 15.33 21.7092 15.44 21.5592 15.45C22.4892 15.32 22.7892 15.41 23.3892 15.38C23.4392 14.97 24.8592 14.61 25.5992 14.25C26.7992 14.43 24.9892 14.82 25.4092 15.12C25.2992 14.82 27.3292 14.47 26.8992 14.28C27.8092 14.36 27.6692 14.27 28.1692 14.51C28.2392 14 28.9592 14.29 29.6392 13.87C30.9392 13.92 30.0392 14.27 31.3992 13.92C32.0792 13.97 30.8792 14.33 30.8792 14.33L30.9092 14.25ZM63.9392 9.67999C63.6492 9.71999 63.4092 9.74001 63.2492 9.76001C63.3892 9.74001 63.5892 9.71999 63.9392 9.67999ZM66.7392 9.44998C66.3992 9.46998 65.9692 9.5 65.5192 9.53C65.4092 9.44 65.5192 9.33001 65.7892 9.32001C65.6392 9.40001 66.3092 9.39998 66.7292 9.44998H66.7392ZM60.6592 7.98999C61.0992 7.90999 61.2492 7.96001 61.3192 8.01001C61.1092 8.04001 60.8692 8.06999 60.5492 8.10999C60.5392 8.11999 60.5092 8.13999 60.4992 8.14999C60.5392 8.08999 60.5792 8.03999 60.6592 7.98999Z" fill="#B62023"/>
<path id="Vector_28" d="M59.8892 8.41998C59.8292 8.42998 59.7892 8.44999 59.7092 8.45999C59.7992 8.46999 59.8892 8.49 59.9792 8.5C60.0292 8.47 60.0792 8.42999 60.1292 8.39999C60.0492 8.39999 59.9692 8.41998 59.8892 8.41998Z" fill="#B62023"/>
<path id="Vector_29" d="M314.479 1.45999H314.419C314.419 1.45999 314.509 1.47999 314.539 1.48999C314.499 1.47999 314.499 1.46999 314.479 1.45999Z" fill="#B62023"/>
<path id="Vector_30" d="M105.479 7.45999L105.469 7.38998L105.229 7.45999H105.479Z" fill="#B62023"/>
<path id="Vector_31" d="M329.939 2.75C329.939 2.75 330.029 2.8 330.139 2.83C330.139 2.81 330.039 2.78 329.939 2.75Z" fill="#B62023"/>
<path id="Vector_32" d="M336.619 2.97L337.559 3.09999C337.149 3.02999 336.859 3 336.619 2.97Z" fill="#B62023"/>
<path id="Vector_33" d="M341.749 3.25C341.819 3.2 341.839 3.16999 341.849 3.12999H341.839L341.749 3.25Z" fill="#B62023"/>
<path id="Vector_34" d="M260.059 2.55C259.989 2.55 259.919 2.55 259.859 2.56C259.399 2.62 259.709 2.59 260.059 2.55Z" fill="#B62023"/>
<path id="Vector_35" d="M284.369 1.95C284.109 2 283.859 2.05 283.589 2.08C284.019 2.1 284.359 2.11 284.369 1.95Z" fill="#B62023"/>
<path id="Vector_36" d="M232.919 3.09999C232.859 3.09999 232.809 3.09999 232.749 3.09999H232.909H232.919Z" fill="#B62023"/>
<path id="Vector_37" d="M282.459 2.06999C282.889 2.12999 283.249 2.12 283.589 2.08C283.239 2.06 282.819 2.02999 282.459 2.06999Z" fill="#B62023"/>
<path id="Vector_38" d="M364.009 4.08L364.259 4.09999C364.259 4.09999 364.269 4.07 364.289 4.06L364.009 4.08Z" fill="#B62023"/>
<path id="Vector_39" d="M364.279 4.06L364.559 4.03999C364.429 4.03999 364.319 4.04 364.279 4.06Z" fill="#B62023"/>
<path id="Vector_40" d="M365.139 3.98L364.559 4.03C364.759 4.03 365.009 4.05 365.139 3.98Z" fill="#B62023"/>
<path id="Vector_41" d="M357.209 3.72L357.129 3.81999C357.129 3.81999 357.199 3.77 357.209 3.72Z" fill="#B62023"/>
<path id="Vector_42" d="M355.139 3.67C355.629 3.71 356.369 3.93001 357.059 3.89001L357.129 3.81C356.799 3.95 355.619 3.51 355.139 3.67Z" fill="#B62023"/>
<path id="Vector_43" d="M346.559 2.14999L348.289 2.28C347.989 2.16 347.599 2.01 348.389 2C346.219 1.62 348.829 2.25999 346.569 2.14999H346.559Z" fill="#B62023"/>
<path id="Vector_44" d="M341.189 1.84999C342.119 1.82999 341.189 1.68999 341.229 1.62999C340.639 1.70999 340.489 1.72999 341.189 1.84999Z" fill="#B62023"/>
<path id="Vector_45" d="M302.359 1.06L302.459 0.809998C301.739 0.839998 302.459 0.909998 302.359 1.06Z" fill="#B62023"/>
<path id="Vector_46" d="M294.929 2.28999L295.619 2.45999L295.959 2.23L294.929 2.28999Z" fill="#B62023"/>
<path id="Vector_47" d="M290.559 0.440002L290.879 0.399994L289.679 0.48999L290.559 0.440002Z" fill="#B62023"/>
<path id="Vector_48" d="M225.329 0.719998L225.549 1.03C226.029 0.969996 226.129 0.609998 225.329 0.719998Z" fill="#B62023"/>
<path id="Vector_49" d="M197.189 1.62C196.879 1.47 196.079 1.39 195.599 1.56C196.229 1.56 196.869 1.67 197.189 1.62Z" fill="#B62023"/>
<path id="Vector_50" d="M112.779 4.5L113.339 4.36L112.279 4.50999L112.779 4.5Z" fill="#B62023"/>
</g>
</svg>
